{
  "tocText": "FILE \"CD-ROM (Track 1).bin\" BINARY\n  TRACK 01 MODE2/2352\n    INDEX 01 00:00:00\nFILE \"CD-ROM (Track 2).bin\" BINARY\n  TRACK 02 AUDIO\n    INDEX 00 00:00:00\n    INDEX 01 00:02:00\nFILE \"CD-ROM (Track 3).bin\" BINARY\n  TRACK 03 AUDIO\n    INDEX 00 00:00:00\n    INDEX 01 00:02:00\n",
  "tocName": "CD-ROM.cue",
  "files": [
    {
      "name": "CD-ROM (Track 1).bin",
      "size": 2352,
      "sha1": "16fb0dfc1cd02a3dc647b90f6bc296a15ad63c28"
    },
    {
      "name": "CD-ROM (Track 2).bin",
      "size": 4704,
      "sha1": "ffc4027aa0321e4d989d91dd75c99e102fae7692"
    },
    {
      "name": "CD-ROM (Track 3).bin",
      "size": 7056,
      "sha1": "47206b45be2c9d9f30c596aa51386e1c73ead9c0"
    }
  ]
}
